<?xml version="1.0" standalone="no"?><!DOCTYPE svg PUBLIC "-//W3C//DTD SVG 1.1//EN" "http://www.w3.org/Graphics/SVG/1.1/DTD/svg11.dtd"><svg t="1500298505437" class="icon" style="" viewBox="0 0 1024 1024" version="1.1" xmlns="http://www.w3.org/2000/svg" p-id="1022" xmlns:xlink="http://www.w3.org/1999/xlink" width="200" height="200"><defs><style type="text/css"></style></defs><path d="M512 103.424C286.72 103.424 103.424 286.72 103.424 512S286.72 920.576 512 920.576s408.576-183.296 408.576-408.576S737.28 103.424 512 103.424z m0 766.464c-197.632 0-357.888-160.768-357.888-357.888 0-197.632 160.768-357.888 357.888-357.888 197.632 0 357.888 160.768 357.888 357.888 0 197.632-160.256 357.888-357.888 357.888z" fill="#ffffff" p-id="1023"></path><path d="M681.984 452.608L477.696 334.336c-21.504-12.288-47.104-12.288-68.608 0.512-21.504 12.288-34.304 34.816-34.304 59.392v236.032c0 24.576 12.8 46.592 33.792 59.392 10.752 6.144 23.04 9.728 34.816 9.728s23.552-3.072 34.304-9.216l204.8-118.272c20.992-12.8 33.792-35.328 33.28-60.416 0-25.088-12.8-47.104-33.792-58.88z m-25.088 75.264l-204.288 117.76c-8.704 4.608-15.872 1.536-18.432 0s-8.704-6.144-8.704-15.36V393.728c0-9.216 6.144-13.824 9.216-15.36 3.072-1.536 6.144-2.56 9.216-2.56 3.072 0 6.144 0.512 8.704 2.048l204.8 118.272c7.68 4.096 8.192 12.288 8.704 15.36-0.512 6.656-4.096 12.8-9.216 16.384z" fill="#ffffff" p-id="1024"></path></svg>